<svg xmlns="http://www.w3.org/2000/svg" width="500" height="500" viewBox="0 0 500 500" version="1.1"><path d="M 227 215.381 C 227 229.959, 227.126 230.997, 229.021 232.011 C 230.132 232.606, 231.552 232.777, 232.175 232.392 C 232.817 231.995, 233.035 232.134, 232.679 232.710 C 232.319 233.293, 236.213 235.578, 241.774 238.045 C 247.123 240.419, 251.928 242.730, 252.450 243.180 C 252.973 243.631, 254.210 244, 255.200 244 C 256.855 244, 257 242.764, 257 228.622 C 257 216.065, 256.720 213.013, 255.476 211.980 C 254.638 211.284, 253.673 210.994, 253.333 211.334 C 252.992 211.674, 253.453 212.237, 254.357 212.583 C 255.663 213.085, 256 214.640, 256 220.166 C 256 227.339, 254.613 229.033, 254.167 222.406 C 253.762 216.403, 252.814 215.756, 250 219.563 C 247.781 222.564, 244.920 224.557, 246.500 222 C 246.840 221.450, 246.431 221, 245.590 221 C 244.692 221, 244.284 221.577, 244.600 222.399 C 244.895 223.168, 244.678 224.081, 244.118 224.427 C 242.761 225.266, 240.847 221.561, 241.611 219.572 C 242.042 218.448, 241.611 218, 240.098 218 C 236.437 218, 229.915 210.107, 230.802 206.750 C 230.911 206.338, 230.495 206, 229.878 206 C 229.102 206, 229.140 205.536, 230 204.500 C 230.685 203.675, 231.752 203.007, 232.372 203.015 C 232.993 203.024, 232.825 203.503, 232 204.081 C 230.826 204.903, 230.989 204.994, 232.750 204.498 C 233.999 204.147, 235 204.308, 235 204.859 C 235 205.406, 234.213 206.059, 233.250 206.311 C 231.899 206.664, 231.999 206.794, 233.691 206.884 C 234.896 206.948, 236.143 206.577, 236.463 206.060 C 236.821 205.480, 238.199 205.522, 240.054 206.169 C 242.421 206.994, 242.825 207.506, 241.946 208.565 C 241.331 209.306, 241.081 210.323, 241.391 210.824 C 241.701 211.325, 240.952 211.683, 239.727 211.618 C 237.987 211.526, 237.500 212.046, 237.500 214 C 237.500 215.944, 237.945 216.426, 239.500 216.169 C 240.600 215.987, 242.518 215.727, 243.763 215.592 C 245.008 215.457, 246.583 214.649, 247.263 213.797 C 247.943 212.946, 249.301 211.830, 250.281 211.317 C 251.703 210.573, 249.719 209.393, 240.400 205.443 C 233.987 202.724, 228.348 200.350, 227.870 200.167 C 227.391 199.983, 227 206.830, 227 215.381 M 230 226.433 C 230 228.987, 230.512 230.028, 232 230.500 C 233.100 230.849, 234 231.479, 234 231.901 C 234 232.322, 234.563 232.719, 235.250 232.783 C 235.938 232.847, 237.400 233.035, 238.500 233.200 C 240.105 233.441, 240.562 232.854, 240.815 230.230 C 241.103 227.236, 240.765 226.795, 236.815 225.002 C 230.797 222.271, 230 222.438, 230 226.433 M 247.667 223.667 C 246.077 225.256, 247.131 227.792, 249.576 228.259 C 251.414 228.611, 251.844 228.444, 251.076 227.676 C 249.541 226.141, 249.747 225, 251.559 225 C 252.416 225, 252.840 224.550, 252.500 224 C 251.802 222.870, 248.679 222.655, 247.667 223.667 M 271.092 252.714 L 275.198 253.125 274.823 257.062 C 274.616 259.228, 274.822 261, 275.281 261 C 275.740 261, 275.977 259.087, 275.807 256.750 L 275.500 252.500 271.243 252.402 L 266.985 252.304 271.092 252.714 M 248.435 254.309 C 248.136 255.087, 248.056 258.374, 248.257 261.612 L 248.622 267.500 248.811 260.695 L 249 253.890 253.750 254.195 L 258.500 254.500 259.132 259 L 259.765 263.500 259.632 258.500 L 259.500 253.500 254.239 253.197 C 250.413 252.977, 248.830 253.281, 248.435 254.309 M 116.880 255.007 C 115.989 255.528, 114.467 257.202, 113.497 258.727 C 111.894 261.249, 112.063 261.188, 115.367 258.054 C 119.764 253.883, 120.157 253.093, 116.880 255.007 M 143.086 257.618 C 144.414 259.333, 145.701 260.557, 145.947 260.338 C 146.193 260.119, 145.106 258.716, 143.533 257.220 L 140.672 254.500 143.086 257.618 M 188.443 266.288 C 188.171 266.997, 188.084 274.985, 188.251 284.038 L 188.553 300.500 188.777 283.316 L 189 266.133 191.750 265.716 L 194.500 265.300 191.719 265.150 C 190.189 265.067, 188.715 265.580, 188.443 266.288 M 137 267.250 C 137 267.663, 139.223 268, 141.941 268 C 144.659 268, 147.091 267.663, 147.345 267.250 C 147.600 266.837, 145.377 266.500, 142.405 266.500 C 139.432 266.500, 137 266.837, 137 267.250 M 275.411 283 C 275.411 292.625, 275.561 296.563, 275.745 291.750 C 275.928 286.938, 275.928 279.063, 275.745 274.250 C 275.561 269.438, 275.411 273.375, 275.411 283 M 259.232 272 C 259.232 273.925, 259.438 274.712, 259.689 273.750 C 259.941 272.788, 259.941 271.212, 259.689 270.250 C 259.438 269.288, 259.232 270.075, 259.232 272 M 128 271 C 131.419 272.095, 134.048 272.095, 131.500 271 C 130.400 270.527, 128.600 270.154, 127.500 270.170 C 125.892 270.194, 125.990 270.356, 128 271 M 205 273.732 C 206.375 273.985, 208.175 274.711, 209 275.346 C 210.305 276.350, 210.322 276.273, 209.128 274.750 C 208.371 273.785, 206.576 273.061, 205.128 273.136 L 202.500 273.272 205 273.732 M 237.655 274.829 C 236.745 275.835, 236 277.060, 236 277.551 C 236 278.043, 236.680 277.474, 237.511 276.288 C 238.342 275.101, 240.254 273.944, 241.761 273.715 L 244.500 273.300 241.905 273.150 C 240.478 273.067, 238.565 273.823, 237.655 274.829 M 199.382 288.500 C 199.384 295.100, 199.546 297.670, 199.741 294.211 C 199.937 290.752, 199.936 285.352, 199.738 282.211 C 199.540 279.070, 199.380 281.900, 199.382 288.500 M 248.286 283.500 C 248.294 286.250, 248.488 287.256, 248.718 285.736 C 248.947 284.216, 248.941 281.966, 248.704 280.736 C 248.467 279.506, 248.279 280.750, 248.286 283.500 M 148.252 286.500 C 148.263 288.700, 148.468 289.482, 148.707 288.238 C 148.946 286.994, 148.937 285.194, 148.687 284.238 C 148.437 283.282, 148.241 284.300, 148.252 286.500 M 110.116 287.250 C 110.198 288.846, 110.362 289.009, 110.678 287.810 C 110.923 286.881, 112.333 285.936, 113.812 285.710 C 116.239 285.340, 116.184 285.285, 113.250 285.150 C 110.471 285.022, 110.017 285.326, 110.116 287.250 M 172.762 285.707 C 174.006 285.946, 175.806 285.937, 176.762 285.687 C 177.718 285.437, 176.700 285.241, 174.500 285.252 C 172.300 285.263, 171.518 285.468, 172.762 285.707 M 173 290.500 C 172.215 291.446, 172.148 292, 172.819 292 C 173.403 292, 174.160 291.550, 174.500 291 C 175.328 289.660, 183 289.714, 183 291.059 C 183 291.641, 183.457 291.835, 184.016 291.490 C 186.107 290.198, 183.723 289, 179.063 289 C 176 289, 173.791 289.546, 173 290.500 M 145.794 294.036 C 144.877 295.635, 142.635 297.626, 140.813 298.461 C 138.532 299.506, 138.279 299.790, 140 299.371 C 142.838 298.681, 145.719 296.394, 147.174 293.676 C 148.823 290.594, 147.584 290.918, 145.794 294.036 M 180.332 295.250 C 179.217 296.488, 177.448 298.055, 176.402 298.734 C 174.839 299.748, 174.988 299.766, 177.236 298.830 C 178.741 298.204, 180.664 296.636, 181.509 295.346 C 183.451 292.382, 182.954 292.342, 180.332 295.250 M 155.315 296.790 C 156.850 298.491, 161 300.473, 161 299.505 C 161 299.336, 159.313 298.203, 157.250 296.988 C 153.761 294.933, 153.626 294.919, 155.315 296.790 M 247 298.089 C 244.931 299.782, 244.871 299.953, 246.650 299.085 C 248.322 298.270, 248.926 298.366, 249.369 299.518 C 249.681 300.333, 250.433 301, 251.040 301 C 251.647 301, 251.432 300.289, 250.562 299.419 C 249.693 298.550, 249.237 297.425, 249.550 296.919 C 250.405 295.535, 249.761 295.831, 247 298.089 M 265.915 300.315 C 266.367 300.767, 268.483 300.984, 270.618 300.797 L 274.500 300.458 269.796 299.975 C 267.210 299.710, 265.463 299.863, 265.915 300.315 M 127.250 300.689 C 128.213 300.941, 129.787 300.941, 130.750 300.689 C 131.713 300.438, 130.925 300.232, 129 300.232 C 127.075 300.232, 126.287 300.438, 127.250 300.689 M 213.250 300.689 C 214.213 300.941, 215.787 300.941, 216.750 300.689 C 217.713 300.438, 216.925 300.232, 215 300.232 C 213.075 300.232, 212.287 300.438, 213.250 300.689" stroke="none" fill="#d47e34" fill-rule="evenodd"/><path d="M 122.500 253.151 C 120.850 253.751, 117.813 255.854, 115.750 257.824 C 112.380 261.043, 112 261.920, 112 266.480 C 112 269.468, 112.644 272.475, 113.566 273.791 C 115.514 276.572, 121.336 279.604, 126.547 280.552 C 133.064 281.737, 138 284.687, 138 287.398 C 138 290.891, 135.604 292.273, 129.740 292.161 C 125.039 292.071, 124.191 291.699, 121.500 288.546 C 118.784 285.364, 118.144 285.090, 114.750 285.646 C 111.773 286.135, 111.007 286.699, 111.035 288.381 C 111.108 292.704, 115.701 297.847, 120.965 299.498 C 125.069 300.786, 136.260 300.229, 140.281 298.538 C 145.237 296.453, 147.991 291.860, 147.996 285.673 C 148.002 277.999, 144.079 275.092, 128.206 271.005 C 122.709 269.590, 120.588 265.941, 123.570 263.034 C 124.632 261.999, 126.175 261.033, 127 260.887 C 130.110 260.339, 135.125 262.262, 136.649 264.587 C 137.932 266.545, 139.077 267, 142.723 267 C 147.117 267, 147.202 266.939, 146.563 264.250 C 144.985 257.610, 139.340 253.510, 130.500 252.584 C 127.750 252.295, 124.150 252.551, 122.500 253.151 M 265.889 252.743 C 265.828 252.884, 265.778 253.900, 265.778 255 C 265.778 260.735, 265.799 260.762, 270.250 260.628 C 274.390 260.503, 274.508 260.406, 274.804 256.855 L 275.108 253.210 270.554 252.848 C 268.049 252.649, 265.950 252.601, 265.889 252.743 M 248.882 260.695 C 248.816 264.438, 248.821 267.851, 248.891 268.279 C 248.962 268.708, 247.900 268.325, 246.531 267.429 C 241.792 264.323, 233.432 265.283, 229.531 269.380 C 225.543 273.569, 223.229 286.629, 225.986 289.386 C 226.544 289.944, 227 291.125, 227 292.010 C 227 294.513, 232.931 299.979, 235.869 300.183 C 241.169 300.551, 244.315 299.912, 247.154 297.890 C 248.752 296.752, 249.993 296.199, 249.911 296.661 C 249.404 299.535, 250.184 300.102, 254.250 299.807 L 258.500 299.500 258.500 277 L 258.500 254.500 253.750 254.195 L 249 253.890 248.882 260.695 M 160.077 267.318 C 154.238 270.305, 151.682 275.172, 151.644 283.377 C 151.608 290.879, 153.575 294.952, 158.713 298.019 C 163.577 300.922, 172.389 301.088, 176.623 298.356 C 180.099 296.114, 182.921 292.952, 182.967 291.250 C 183.012 289.547, 177.056 289.640, 173.404 291.398 C 167.739 294.125, 166.451 294.147, 163.663 291.563 C 160.861 288.967, 160.136 286.065, 162.250 285.906 C 162.938 285.855, 168 285.677, 173.500 285.511 C 179 285.345, 183.789 285.162, 184.142 285.105 C 185.456 284.890, 183.904 276.602, 181.872 272.986 C 179.430 268.642, 173.007 264.986, 167.890 265.028 C 166.026 265.044, 162.510 266.074, 160.077 267.318 M 191.750 265.785 L 189 266.133 189 283.066 L 189 300 194 300 L 199 300 199 288.500 C 199 278.333, 199.232 276.768, 201 275 C 202.100 273.900, 204.070 273, 205.378 273 C 209.608 273, 210.473 275.401, 210.857 288.204 L 211.214 300.101 215.857 299.800 L 220.500 299.500 220.808 288 C 221.180 274.122, 220.141 269.868, 215.708 267.128 C 211.525 264.543, 204.977 264.901, 200.867 267.940 C 198.340 269.809, 197.926 269.889, 198.189 268.459 C 198.555 266.470, 195.700 265.284, 191.750 265.785 M 265.441 267.292 C 265.169 268.003, 265.070 275.540, 265.223 284.042 L 265.500 299.500 270.250 299.805 L 275 300.110 275 283.055 L 275 266 270.469 266 C 267.687 266, 265.746 266.499, 265.441 267.292 M 163.099 275.395 C 160.489 278.173, 161.024 278.740, 166.502 279.003 C 174.012 279.362, 174.987 279.144, 174.329 277.250 C 172.705 272.578, 166.680 271.583, 163.099 275.395 M 237.422 275.087 C 236.020 276.635, 235.533 278.693, 235.533 283.068 C 235.533 289.945, 237.044 292.078, 242.012 292.219 C 246.344 292.343, 249 289.157, 249 283.840 C 249 274.861, 242.246 269.755, 237.422 275.087" stroke="none" fill="#e1292d" fill-rule="evenodd"/><path d="M 247.500 184.060 C 242.550 186.716, 235.250 190.474, 231.277 192.413 C 226.008 194.984, 223.931 196.556, 223.601 198.219 C 222.970 201.405, 222.986 209.612, 223.649 222.555 L 224.215 233.611 229.358 235.953 C 232.186 237.242, 236.975 239.402, 240 240.753 C 248.366 244.492, 254.269 247.147, 256.661 248.248 C 258.440 249.067, 260.731 248.223, 269.661 243.458 C 275.622 240.277, 283.299 236.285, 286.720 234.587 L 292.941 231.500 292.970 212.477 L 293 193.455 289.250 191.617 C 287.188 190.605, 284.719 189.378, 283.764 188.889 C 282.809 188.400, 281.459 187.997, 280.764 187.994 C 280.069 187.990, 278.150 187.281, 276.500 186.417 C 270.518 183.285, 259.752 179.003, 258.145 179.116 C 257.240 179.180, 252.450 181.405, 247.500 184.060 M 253.181 184.607 C 250.806 186.031, 249.010 187.343, 249.190 187.524 C 249.857 188.190, 277.503 200, 278.397 200 C 278.907 200, 281.365 198.804, 283.859 197.342 L 288.394 194.685 281.883 191.592 C 278.302 189.892, 273.601 187.880, 271.436 187.122 C 269.271 186.365, 265.728 184.902, 263.562 183.872 C 258.558 181.493, 258.354 181.507, 253.181 184.607 M 234.961 194.291 C 232.597 195.506, 230.681 196.950, 230.702 197.500 C 230.746 198.654, 255.567 209.797, 258.364 209.919 C 260.372 210.006, 268 206.073, 268 204.951 C 268 204.576, 263.163 202.200, 257.250 199.670 C 237.525 191.231, 239.831 191.787, 234.961 194.291 M 284.500 199.791 C 280.029 202.244, 279.491 202.903, 279.412 206.017 C 279.273 211.563, 279.105 212, 277.122 212 C 276.090 212, 274.685 212.675, 274 213.500 C 271.997 215.913, 271 215.249, 271 211.500 C 271 207.390, 270.511 207.292, 264.527 210.199 L 260 212.399 260 228.199 C 260 238.359, 260.367 244, 261.029 244 C 261.594 244, 268.342 240.738, 276.024 236.750 L 289.992 229.500 289.996 213.250 C 289.998 204.313, 289.887 197.011, 289.750 197.023 C 289.613 197.036, 287.250 198.281, 284.500 199.791 M 227 215.569 L 227 231.139 238.750 236.589 C 245.213 239.587, 251.281 242.481, 252.236 243.020 C 256.787 245.588, 257 244.940, 257 228.559 C 257 217.299, 256.662 212.902, 255.750 212.320 C 254.510 211.528, 227.894 200, 227.306 200 C 227.138 200, 227 207.006, 227 215.569 M 209.500 205.896 C 204.550 208.489, 199.600 211.179, 198.500 211.874 L 196.500 213.138 198.500 212.653 C 199.600 212.387, 204.994 210.442, 210.487 208.330 C 217.242 205.734, 220.583 203.926, 220.810 202.746 C 221.308 200.162, 219.463 200.676, 209.500 205.896 M 206.745 215.775 C 199.730 219.377, 194.159 222.492, 194.364 222.697 C 194.720 223.054, 203.722 220.039, 209 217.795 C 213.567 215.854, 215.480 215.131, 217.658 214.525 C 220.029 213.864, 221.182 211.903, 220.157 210.273 C 219.751 209.625, 214.638 211.723, 206.745 215.775 M 215 220.258 C 213.625 220.875, 205.975 224.579, 198 228.488 C 190.025 232.397, 181.925 236.228, 180 237.002 C 175.324 238.882, 169.806 242.139, 170.360 242.693 C 170.605 242.938, 171.637 242.695, 172.653 242.153 C 173.669 241.611, 176.300 240.411, 178.500 239.485 C 180.700 238.559, 184.300 237.005, 186.500 236.030 C 188.700 235.055, 197.137 231.617, 205.250 228.390 C 216.446 223.936, 220 222.098, 220 220.761 C 220 218.767, 218.628 218.629, 215 220.258 M 230 226.301 C 230 229.229, 230.515 229.852, 234.565 231.819 C 239.839 234.381, 241 234.034, 241 229.892 C 241 227.344, 240.372 226.617, 236.750 224.973 C 230.842 222.291, 230 222.457, 230 226.301 M 215 229.502 C 213.625 230.297, 206.200 233.908, 198.500 237.528 C 190.800 241.148, 183.446 244.633, 182.157 245.273 C 179.280 246.703, 181.343 247.622, 184.349 246.250 C 188.485 244.361, 199.924 239.624, 216.773 232.822 C 218.634 232.071, 219.929 230.888, 219.773 230.083 C 219.379 228.038, 217.854 227.852, 215 229.502 M 209.280 241.905 C 203.109 245.041, 197.709 247.976, 197.280 248.427 C 196.380 249.375, 200.130 248.367, 204.500 246.487 C 206.150 245.777, 211.436 243.690, 216.246 241.848 C 224.502 238.688, 226.752 236.685, 222.422 236.352 C 221.365 236.271, 215.451 238.770, 209.280 241.905 M 222.689 245.268 C 207.772 252.785, 211.081 252.655, 229.972 244.983 C 232.432 243.984, 234.588 242.735, 234.764 242.207 C 235.586 239.743, 231.696 240.729, 222.689 245.268 M 301.272 310.211 C 298.545 311.527, 297.430 314.608, 298.997 316.497 C 299.637 317.267, 301.699 318.406, 303.580 319.026 C 307.579 320.346, 308.091 322, 304.500 322 C 303.125 322, 302 321.550, 302 321 C 302 320.450, 301.100 320, 300 320 C 297.772 320, 297.360 321.960, 299.200 323.800 C 300.471 325.071, 305.765 325.411, 308.418 324.393 C 310.831 323.467, 310.417 318.406, 307.777 316.557 C 306.555 315.701, 304.755 315, 303.777 315 C 302.800 315, 302 314.550, 302 314 C 302 313.450, 302.900 313, 304 313 C 305.100 313, 306 313.450, 306 314 C 306 314.550, 306.900 315, 308 315 C 310.992 315, 310.411 312.264, 307.050 310.526 C 305.427 309.687, 303.964 309.030, 303.800 309.068 C 303.635 309.105, 302.497 309.619, 301.272 310.211 M 120 317.500 L 120 325 125.500 325 C 129.722 325, 131 324.652, 131 323.500 C 131 322.452, 129.944 322, 127.500 322 C 125.056 322, 124 321.548, 124 320.500 C 124 319.520, 124.981 319, 126.833 319 C 130.161 319, 131.063 318.329, 130.324 316.402 C 130.028 315.631, 128.484 315, 126.893 315 C 125.302 315, 124 314.550, 124 314 C 124 313.450, 125.575 313, 127.500 313 C 129.944 313, 131 312.548, 131 311.500 C 131 310.348, 129.722 310, 125.500 310 L 120 310 120 317.500 M 206 317.500 C 206 323.346, 206.316 325, 207.434 325 C 208.254 325, 209.002 323.824, 209.184 322.250 C 209.411 320.272, 210.062 319.500, 211.500 319.500 C 212.938 319.500, 213.589 320.272, 213.816 322.250 C 214.149 325.141, 217.348 326.202, 218.338 323.750 C 218.741 322.750, 218.858 322.750, 218.921 323.750 C 218.972 324.553, 220.609 325, 223.500 325 L 228 325 228 320.050 C 228 316.427, 227.543 314.844, 226.297 314.146 C 224.861 313.343, 224.802 312.943, 225.920 311.597 C 227.046 310.239, 226.986 310, 225.516 310 C 223.573 310, 219.525 314.663, 219.453 316.984 C 219.427 317.818, 218.835 319.400, 218.138 320.500 C 217.041 322.230, 216.943 321.864, 217.409 317.796 C 218.099 311.790, 216.496 310, 210.429 310 L 206 310 206 317.500 M 241.103 317.500 C 240.968 324.460, 241.106 325, 243.023 325 C 244.948 325, 245.072 324.490, 244.849 317.500 C 244.649 311.236, 244.333 310, 242.929 310 C 241.516 310, 241.225 311.199, 241.103 317.500 M 253 311.969 C 253 313.260, 252.511 313.749, 251.578 313.392 C 248.657 312.271, 246 314.864, 246 318.835 C 246 323.589, 247.419 325, 252.200 325 L 256 325 256 317.500 C 256 311.500, 255.700 310, 254.500 310 C 253.675 310, 253 310.885, 253 311.969 M 143.183 313.078 C 142.323 314.455, 142.215 315.554, 142.861 316.332 C 143.398 316.979, 143.986 319.081, 144.168 321.004 C 144.487 324.363, 144.667 324.507, 148.750 324.690 C 152.602 324.861, 153 324.658, 153 322.521 C 153 319.126, 154.004 317, 155.607 317 C 156.373 317, 157 317.930, 157 319.066 C 157 322.461, 158.906 325, 161.453 325 C 165.253 325, 166.999 323.946, 167.015 321.643 C 167.029 319.632, 167.109 319.654, 168.326 322 C 169.164 323.614, 169.270 324.739, 168.626 325.174 C 167.993 325.601, 168.122 326.442, 168.979 327.475 C 170.877 329.761, 176.238 329.097, 177.409 326.431 C 178.205 324.621, 178.987 324.417, 183.659 324.805 L 189 325.248 189 320.324 C 189 314.967, 187.779 313, 184.455 313 C 181.912 313, 178.667 316.222, 179.859 317.564 C 180.316 318.079, 180.083 319.625, 179.341 321 C 178.069 323.356, 178.006 323.215, 178.246 318.554 L 178.500 313.609 174.777 313.363 C 171.847 313.169, 170.644 313.638, 169.133 315.558 C 167.593 317.516, 167.099 317.700, 166.635 316.491 C 166.317 315.661, 164.920 314.465, 163.532 313.833 C 161.436 312.878, 160.668 312.990, 159.004 314.496 C 157.200 316.129, 157 316.144, 157 314.652 C 157 313.272, 156.241 313.085, 152.484 313.536 C 148.989 313.955, 147.833 313.730, 147.377 312.539 C 146.551 310.387, 144.717 310.622, 143.183 313.078 M 132.497 313.837 C 132.224 314.110, 132 316.733, 132 319.667 C 132 323.641, 132.367 325, 133.440 325 C 134.381 325, 134.987 323.703, 135.190 321.250 C 135.399 318.721, 135.989 317.500, 137 317.500 C 138.011 317.500, 138.601 318.721, 138.810 321.250 C 139.013 323.703, 139.619 325, 140.560 325 C 142.224 325, 142.589 317.480, 141.045 315.038 C 140.179 313.669, 133.590 312.743, 132.497 313.837 M 191.750 314.080 C 189.793 315.220, 189.407 318.515, 191.107 319.566 C 191.892 320.051, 191.849 320.475, 190.961 321.024 C 188.613 322.475, 190.763 325, 194.346 325 C 198.273 325, 200.585 322.858, 199.458 320.263 C 199.037 319.293, 198.785 317.741, 198.898 316.813 C 199.012 315.885, 198.210 314.648, 197.118 314.063 C 194.700 312.769, 193.997 312.772, 191.750 314.080 M 209 314.430 C 209 315.451, 209.903 316, 211.583 316 C 214.716 316, 214.373 313.652, 211.172 313.180 C 209.729 312.968, 209 313.388, 209 314.430 M 231.750 313.716 C 229.034 314.128, 229 314.225, 229 321.566 C 229 328.333, 229.179 329, 231 329 C 232.333 329, 233 328.333, 233 327 C 233 325.580, 233.667 325, 235.300 325 C 238.459 325, 240 323.182, 240 319.455 C 240 316.434, 237.383 312.831, 235.421 313.150 C 234.915 313.232, 233.262 313.487, 231.750 313.716 M 258.405 315.146 C 257.078 316.641, 256.868 317.421, 257.714 317.717 C 258.628 318.038, 258.651 318.586, 257.806 319.939 C 255.795 323.159, 257.490 325, 262.469 325 L 267 325 267 320.571 C 267 313.543, 262.404 310.641, 258.405 315.146 M 269.200 314.200 C 267.696 315.704, 267.644 318.662, 269.107 319.566 C 269.892 320.051, 269.849 320.475, 268.961 321.024 C 268.272 321.450, 267.996 322.546, 268.346 323.460 C 268.817 324.688, 269.966 325.040, 272.742 324.811 C 276.457 324.504, 276.502 324.448, 276.654 320 C 276.738 317.525, 276.345 314.938, 275.781 314.250 C 274.478 312.662, 270.766 312.634, 269.200 314.200 M 283 314.717 C 283 315.661, 283.742 318.375, 284.648 320.748 C 286.221 324.867, 286.209 325.127, 284.398 326.460 C 282.570 327.805, 282.568 327.883, 284.333 328.568 C 285.540 329.035, 286.767 328.633, 287.924 327.389 C 290.176 324.968, 293.317 314.917, 292.178 313.778 C 291.146 312.746, 289.379 314.698, 288.807 317.500 C 288.456 319.222, 288.160 319.049, 286.674 316.250 C 284.803 312.726, 283 311.973, 283 314.717 M 313.223 314.557 C 310.744 316.292, 310.142 321.742, 312.200 323.800 C 314.796 326.396, 320.992 324.879, 321.015 321.643 C 321.029 319.632, 321.109 319.654, 322.326 322 C 323.164 323.614, 323.270 324.739, 322.626 325.174 C 320.699 326.476, 324.183 329.116, 327.412 328.801 C 329.796 328.568, 330.855 327.733, 332.087 325.112 C 333.359 322.407, 333.812 322.066, 334.331 323.420 C 334.830 324.720, 335.969 325.044, 339.214 324.808 C 343.426 324.501, 343.447 324.479, 343.803 320.179 C 343.999 317.803, 343.916 315.223, 343.618 314.446 C 342.636 311.889, 340.119 314.076, 339.805 317.758 C 339.371 322.862, 337 323.277, 337 318.250 C 337 313.762, 336.241 312.555, 334.386 314.095 C 333.672 314.687, 332.526 314.825, 331.839 314.401 C 329.275 312.816, 325.292 313.080, 323.264 314.969 C 321.236 316.858, 321.181 316.858, 319.448 314.943 C 317.322 312.593, 316.131 312.519, 313.223 314.557 M 345.464 313.870 C 345.209 314.125, 345 316.733, 345 319.667 C 345 323.641, 345.367 325, 346.440 325 C 347.381 325, 347.987 323.703, 348.190 321.250 C 348.433 318.314, 348.960 317.434, 350.619 317.198 C 352.475 316.933, 352.723 317.366, 352.619 320.698 L 352.500 324.500 357.250 324.805 C 360.399 325.007, 362 324.713, 362 323.932 C 362 323.036, 362.342 323.039, 363.435 323.946 C 364.224 324.601, 366.361 324.993, 368.185 324.818 C 371.324 324.517, 371.502 324.288, 371.542 320.500 C 371.566 318.300, 370.934 315.712, 370.137 314.750 C 367.152 311.141, 362.338 313.756, 363.244 318.494 C 363.507 319.872, 363.335 321, 362.861 321 C 362.388 321, 362 319.945, 362 318.655 C 362 314.493, 356.907 311.493, 354.287 314.113 C 353.626 314.774, 352.632 314.878, 351.837 314.370 C 350.391 313.443, 346.217 313.116, 345.464 313.870 M 148.250 316.662 C 146.532 317.356, 146.679 320.488, 148.500 322 C 149.786 323.068, 150 322.729, 150 319.622 C 150 317.630, 149.887 316.036, 149.750 316.079 C 149.613 316.122, 148.938 316.385, 148.250 316.662 M 332.429 318 C 332.429 319.100, 332.782 320, 333.214 320 C 333.646 320, 334 319.100, 334 318 C 334 316.900, 333.646 316, 333.214 316 C 332.782 316, 332.429 316.900, 332.429 318 M 172 319.583 C 172 322.716, 174.348 322.373, 174.820 319.172 C 175.032 317.729, 174.612 317, 173.570 317 C 172.549 317, 172 317.903, 172 319.583 M 232.685 318.378 C 232.154 319.763, 233.707 322, 235.200 322 C 235.640 322, 236 320.875, 236 319.500 C 236 316.824, 233.594 316.010, 232.685 318.378 M 249.688 317.646 C 248.147 319.186, 249.040 322, 251.070 322 C 252.625 322, 253.060 321.461, 252.820 319.828 C 252.488 317.573, 250.880 316.453, 249.688 317.646 M 325.336 318.567 C 324.462 320.844, 326.792 322.944, 328.026 320.992 C 328.545 320.171, 328.976 318.938, 328.985 318.250 C 329.007 316.451, 326.049 316.708, 325.336 318.567" stroke="none" fill="#6a635c" fill-rule="evenodd"/><path d="M 287 163.072 C 287 165.455, 281.857 171.022, 275.953 175.032 C 272.679 177.255, 270 179.455, 270 179.921 C 270 180.387, 272.587 181.790, 275.750 183.040 C 278.913 184.289, 281.928 185.692, 282.450 186.156 C 283.951 187.489, 287.639 187.140, 288.967 185.539 C 289.634 184.736, 290.434 182.186, 290.744 179.873 C 291.225 176.283, 291.071 175.759, 289.692 176.288 C 288.213 176.856, 288.215 176.617, 289.717 173.466 C 290.978 170.822, 291.143 169.170, 290.429 166.338 C 289.549 162.848, 287 160.420, 287 163.072 M 334.661 167.935 C 331.112 173.299, 327.041 176.180, 315.441 181.536 C 309.974 184.061, 303.475 187.164, 301 188.432 L 296.500 190.737 296.223 204.178 L 295.946 217.619 305.223 217.245 C 315.255 216.841, 319.246 215.798, 322.750 212.664 C 326.013 209.746, 325.533 208.662, 321.250 209.275 L 317.500 209.812 321.017 208.156 C 329.271 204.270, 335 197.667, 335 192.040 C 335 189.890, 333.552 189.298, 332.491 191.014 C 331.722 192.258, 325.402 195.505, 322 196.404 C 320.211 196.876, 320.512 196.507, 323.060 195.105 C 325.018 194.028, 328.949 191.054, 331.795 188.495 C 335.785 184.907, 337.321 182.658, 338.507 178.671 C 340.007 173.627, 339.722 165.564, 338.007 164.504 C 337.587 164.245, 336.082 165.789, 334.661 167.935 M 253.152 184.729 L 248.804 187.258 263.484 193.576 L 278.164 199.894 282.582 197.748 C 285.012 196.567, 287 195.324, 287 194.985 C 287 194.062, 259.562 181.841, 258.074 182.100 C 257.758 182.155, 255.543 183.338, 253.152 184.729 M 233.634 195.128 C 231.507 196.249, 230.157 197.510, 230.634 197.928 C 231.110 198.347, 237.550 201.271, 244.944 204.425 L 258.387 210.160 263.194 207.909 C 265.837 206.671, 268 205.340, 268 204.950 C 268 204.561, 266.538 203.664, 264.750 202.957 C 262.962 202.250, 256.867 199.721, 251.205 197.336 C 245.543 194.951, 240.143 193.020, 239.205 193.044 C 238.267 193.069, 235.760 194.006, 233.634 195.128 M 284.250 200.259 C 280.035 202.376, 280 202.439, 280 207.814 C 280 212.677, 279.802 213.181, 278.069 212.728 C 276.966 212.440, 275.268 213.034, 274.111 214.112 C 271.289 216.740, 271 216.544, 271 212 C 271 209.800, 270.760 208, 270.467 208 C 270.173 208, 267.698 209.133, 264.967 210.517 L 260 213.034 260 228.624 C 260 240.984, 260.269 244.111, 261.297 243.716 C 262.010 243.443, 268.647 240.044, 276.047 236.163 L 289.500 229.107 289.775 213.553 C 289.927 204.999, 289.702 198.028, 289.275 198.062 C 288.849 198.096, 286.587 199.085, 284.250 200.259 M 230 204.500 C 229.140 205.536, 229.102 206, 229.878 206 C 230.495 206, 230.911 206.338, 230.802 206.750 C 229.915 210.107, 236.437 218, 240.098 218 C 241.611 218, 242.042 218.448, 241.611 219.572 C 240.847 221.561, 242.761 225.266, 244.118 224.427 C 244.678 224.081, 244.895 223.168, 244.600 222.399 C 244.284 221.577, 244.692 221, 245.590 221 C 246.431 221, 246.840 221.450, 246.500 222 C 244.920 224.557, 247.781 222.564, 250 219.563 C 252.814 215.756, 253.762 216.403, 254.167 222.406 C 254.605 228.912, 256 227.401, 256 220.419 C 256 215.212, 255.610 213.425, 254.250 212.392 C 251.769 210.508, 250.313 210.687, 247.818 213.182 C 246.619 214.381, 244.706 215.470, 243.568 215.600 C 242.431 215.731, 240.600 215.987, 239.500 216.169 C 237.945 216.426, 237.500 215.944, 237.500 214 C 237.500 212.046, 237.987 211.526, 239.727 211.618 C 240.952 211.683, 241.701 211.325, 241.391 210.824 C 241.081 210.323, 241.331 209.306, 241.946 208.565 C 242.825 207.506, 242.421 206.994, 240.054 206.169 C 238.199 205.522, 236.821 205.480, 236.463 206.060 C 236.143 206.577, 234.896 206.948, 233.691 206.884 C 231.999 206.794, 231.899 206.664, 233.250 206.311 C 235.429 205.741, 235.512 204.410, 233.418 203.607 C 231.328 202.805, 231.428 202.779, 230 204.500 M 293.300 225 C 293.300 228.025, 293.487 229.262, 293.716 227.750 C 293.945 226.238, 293.945 223.762, 293.716 222.250 C 293.487 220.738, 293.300 221.975, 293.300 225 M 247.667 223.667 C 246.077 225.256, 247.131 227.792, 249.576 228.259 C 251.414 228.611, 251.844 228.444, 251.076 227.676 C 249.541 226.141, 249.747 225, 251.559 225 C 252.416 225, 252.840 224.550, 252.500 224 C 251.802 222.870, 248.679 222.655, 247.667 223.667 M 381.250 241.683 C 380.012 241.934, 378.933 242.558, 378.850 243.070 C 378.400 245.863, 378.711 246.460, 380.891 246.974 C 383.007 247.474, 382.603 247.885, 377.391 250.537 C 371.727 253.419, 371.332 253.880, 367.143 262.517 L 362.785 271.500 358.167 262.250 L 353.550 253 347.275 253 C 343.824 253, 341 253.372, 341 253.827 C 341 254.580, 344.184 260.560, 352.929 276.228 C 355.820 281.407, 356.144 282.842, 356.313 291.228 L 356.500 300.500 362.500 300.500 L 368.500 300.500 369 290.500 C 369.399 282.529, 369.924 279.891, 371.588 277.500 C 375.696 271.597, 384.195 254.480, 384.981 250.527 C 385.737 246.723, 385.787 246.676, 385.890 249.691 C 386.013 253.258, 387.030 254.310, 389.456 253.379 C 390.756 252.880, 391.031 251.593, 390.796 247.125 L 390.500 241.500 387 241.364 C 385.075 241.288, 382.488 241.432, 381.250 241.683 M 281.232 276.726 L 281.500 300.500 287 300.500 L 292.500 300.500 292.788 291.250 L 293.075 282 302.924 282 L 312.773 282 313.242 278.805 C 314.203 272.254, 313.816 272, 302.883 272 L 293 272 293 267.533 L 293 263.066 304.250 262.783 L 315.500 262.500 315.500 258 L 315.500 253.500 298.232 253.226 L 280.964 252.953 281.232 276.726 M 318.232 276.750 L 318.500 300.500 335 300.500 L 351.500 300.500 351.500 295.500 L 351.500 290.500 340.750 290.216 L 330 289.932 330 271.466 L 330 253 323.982 253 L 317.964 253 318.232 276.750 M 267.250 261.716 C 268.762 261.945, 271.238 261.945, 272.750 261.716 C 274.262 261.487, 273.025 261.300, 270 261.300 C 266.975 261.300, 265.738 261.487, 267.250 261.716 M 259.232 266 C 259.232 267.925, 259.438 268.712, 259.689 267.750 C 259.941 266.788, 259.941 265.212, 259.689 264.250 C 259.438 263.288, 259.232 264.075, 259.232 266 M 166.250 264.689 C 167.213 264.941, 168.787 264.941, 169.750 264.689 C 170.713 264.438, 169.925 264.232, 168 264.232 C 166.075 264.232, 165.287 264.438, 166.250 264.689 M 264.667 265.667 C 263.743 266.590, 263.823 299.773, 264.750 300.345 C 265.163 300.600, 265.500 292.752, 265.500 282.905 C 265.500 273.057, 265.462 265, 265.417 265 C 265.371 265, 265.033 265.300, 264.667 265.667 M 221.215 287.177 C 221.026 298.301, 220.786 299.909, 219.250 300.311 C 217.610 300.739, 217.612 300.775, 219.281 300.884 C 221.866 301.052, 222.101 299.674, 221.748 286.442 L 221.430 274.500 221.215 287.177 M 150.232 283 C 150.232 284.925, 150.438 285.712, 150.689 284.750 C 150.941 283.788, 150.941 282.212, 150.689 281.250 C 150.438 280.288, 150.232 281.075, 150.232 283 M 210.286 293.500 C 210.294 296.250, 210.488 297.256, 210.718 295.736 C 210.947 294.216, 210.941 291.966, 210.704 290.736 C 210.467 289.506, 210.279 290.750, 210.286 293.500 M 128.762 301.707 C 130.006 301.946, 131.806 301.937, 132.762 301.687 C 133.718 301.437, 132.700 301.241, 130.500 301.252 C 128.300 301.263, 127.518 301.468, 128.762 301.707 M 256.129 317.913 C 256.177 321.325, 256.452 323.881, 256.740 323.594 C 257.391 322.942, 257.211 312.877, 256.536 312.202 C 256.264 311.931, 256.081 314.500, 256.129 317.913 M 138.252 321.500 C 138.263 323.700, 138.468 324.482, 138.707 323.238 C 138.946 321.994, 138.937 320.194, 138.687 319.238 C 138.437 318.282, 138.241 319.300, 138.252 321.500 M 348.232 321 C 348.232 322.925, 348.438 323.712, 348.689 322.750 C 348.941 321.788, 348.941 320.212, 348.689 319.250 C 348.438 318.288, 348.232 319.075, 348.232 321" stroke="none" fill="#e39446" fill-rule="evenodd"/></svg>